<?xml version="1.0" encoding="UTF-8"?>
<svg xmlns="http://www.w3.org/2000/svg"
     version="1.1"
     width="2.91958mm"
     height="4.04678mm"
     viewBox="0 0 8.27599 11.47119">
   <defs>
      <style type="text/css"><![CDATA[
      .a {
        stroke: #000;
        stroke-linecap: round;
        stroke-linejoin: round;
        stroke-width: 0.01px;
      }
    ]]></style>
   </defs>
   <path class="a"
         d="M5.49693.13067A.88173.88173,0,0,1,5.188.22152C5.1638.20335,5.06689.23969,4.976.30026a.475.475,0,0,1-.28467.0848,4.62717,4.62717,0,0,0-1.62325.68443,2.07063,2.07063,0,0,0-.98122,1.12659l-.11508.315.14536.218a2.53854,2.53854,0,0,1,.24833.45427,3.12647,3.12647,0,0,0,.95093,1.49,4.5728,4.5728,0,0,0,.64809.51484c.212.09085.55118.58752.50878.75106-.01817.07268.0424.212.17565.37552a3.10612,3.10612,0,0,1,.49668.73289,1.50291,1.50291,0,0,0,.33918.56329c.218.25439.19383.39976-.15143.99334l-.28466.48455-.43.12719a4.19851,4.19851,0,0,1-.745.14537,1.21608,1.21608,0,0,0-.37553.05451,1.88683,1.88683,0,0,1-.55724-.212,1.9202,1.9202,0,0,0-.52695-.218.78971.78971,0,0,1-.32707-.05451.55884.55884,0,0,0-.39975-.03032.96891.96891,0,0,1-.38158.03028c-.35742-.03634-.527.01211-.57542.15142a.86449.86449,0,0,1-.30284.29073.77646.77646,0,0,0-.38159.93883.62317.62317,0,0,0,.33313.54512c.15142.109.321.24833.38159.30284.3513.315.59357.3513,1.99272.26651a1.50543,1.50543,0,0,0,1.19317-.55723,1.38107,1.38107,0,0,1,.90248-.3513.55365.55365,0,0,0,.315-.12114.92858.92858,0,0,1,.33919-.15748.82124.82124,0,0,0,.32707-.15142c.12114-.07874.24228-.13325.2665-.11508.06057.03634.47244-.24834.57541-.3937a2.761,2.761,0,0,1,.43-.34524A2.04433,2.04433,0,0,0,8.10746,8.07734a1.0001,1.0001,0,0,1,.07271-.26045,6.1619,6.1619,0,0,0,.06664-.957L8.271,5.96958l-.24227-.2605a.6878.6878,0,0,1-.24228-.424.74753.74753,0,0,0-.24834-.43c-.13325-.14537-.23016-.29679-.212-.34524s-.09691-.18171-.28468-.32708a3.15994,3.15994,0,0,1-.76925-.8601A3.17477,3.17477,0,0,0,5.70283,2.608a1.2026,1.2026,0,0,1-.34524-.87826,1.58333,1.58333,0,0,1,.09691-.50878A1.68156,1.68156,0,0,1,6.42361,1.021c.48455.006.6178-.06057.642-.321a.63371.63371,0,0,0-.3089-.59358A1.809,1.809,0,0,0,5.49693.13067Z"/>
</svg>
